<svg  width="615" height="600" xmlns="http://www.w3.org/2000/svg" ><path  d="
 M 0 0 C 0 37, 0, 75, 0, 112
 C 46 90, 54, 24, 106, 3
 C 107 86, 154, 119, 163, 184
 C 110 203, 89, 241, 66, 281
 C 52 285, 38, 284, 24, 282
 C 30 232, 14, 205, 1, 175
 C 0 317, 0, 457, 0, 597
 C 166 599, 332, 598, 497, 598
 C 448 592, 417, 561, 365, 559
 C 359 551, 359, 541, 361, 533
 C 393 496, 442, 474, 458, 425
 C 506 442, 561, 456, 610, 471
 C 614 311, 614, 156, 614, 1
 C 585 0, 558, 0, 530, 0
 C 512 92, 488, 181, 502, 299
 C 403 324, 316, 355, 250, 410
 C 231 407, 218, 408, 207, 405
 C 229 349, 235, 282, 243, 214
 C 267 164, 235, 147, 237, 103
 C 303 106, 332, 71, 389, 66
 C 433 50, 456, 18, 500, 1
 C 332 0, 167, 0, 1, 0" fill="rgb(0,0,0)" />
<path  d="
 M 499 9 C 471 68, 405, 141, 362, 203
 C 323 176, 253, 138, 243, 120
 L 242 119 L 244 117 L 243 120
 L 240 127 C 249 128, 259, 158, 252, 227
 C 243 257, 228, 344, 222, 372
 C 309 281, 409, 143, 507, 9" fill="rgb(147,147,147)" />
<path  d="
 M 524 31 C 482 60, 430, 147, 386, 202
 C 415 235, 483, 282, 500, 275
 C 496 238, 497, 171, 497, 131
 C 528 101, 495, 56, 534, 35" fill="rgb(208,208,208)" />
<path  d="
 M 512 5 C 426 136, 257, 366, 252, 409
 C 325 352, 333, 358, 379, 333
 C 423 332, 420, 301, 484, 314
 L 481 309
 L 475 313 C 495 301, 398, 252, 369, 211
 C 414 129, 576, -41, 503, 9" fill="rgb(172,172,172)" />
<path  d="
 M 482 17 C 422 55, 341, 95, 250, 107
 L 256 108 L 254 106 L 257 109
 L 259 108 C 274 121, 321, 166, 362, 189
 C 401 136, 468, 53, 484, 17" fill="rgb(122,122,122)" />
<path  d="
 M 594 517 C 575 547, 540, 560, 527, 595
 C 558 598, 585, 599, 612, 598
 C 604 573, 632, 510, 595, 513" fill="rgb(0,0,0)" />
<path  d="
 M 456 454 C 453 455, 449, 458, 445, 457
 C 324 531, 393, 560, 614, 466
 C 578 494, 514, 496, 484, 509
 C 462 500, 482, 455, 458, 455" fill="rgb(146,146,146)" />
<path  d="
 M 572 496 C 558 514, 536, 516, 511, 514
 C 486 533, 526, 553, 511, 588
 C 514 574, 652, 493, 586, 499" fill="rgb(209,209,209)" />
<path  d="
 M 90 32 C 74 67, 78, 114, 59, 153
 C 31 157, 14, 151, 3, 146
 C 6 197, 31, 204, 27, 274
 C 56 219, 67, 126, 89, 34" fill="rgb(146,146,146)" />
<path  d="
 M 97 8 C 81 69, 73, 191, 66, 260
 C 97 225, 113, 205, 151, 180
 L 155 174 L 153 172 L 156 175
 L 146 182 C 168 175, 111, 185, 70, 150
 C 75 81, 118, -4, 98, 22" fill="rgb(172,172,172)" />
<path  d="
 M 113 52 C 97 55, 92, 112, 80, 140
 C 105 145, 124, 151, 134, 153
 C 149 126, 115, 74, 110, 54" fill="rgb(208,208,208)" />
<path  d="
 M 606 471 C 576 495, 459, 527, 418, 550
 C 408 556, 412, 563, 414, 569
 C 470 575, 456, 590, 495, 589
 C 497 571, 473, 542, 494, 515
 C 570 495, 654, 479, 593, 466" fill="rgb(172,172,172)" />
<path  d="
 M 482 438 C 477 456, 485, 485, 497, 498
 C 512 473, 573, 498, 568, 467
 C 560 453, 505, 457, 491, 436" fill="rgb(122,122,122)" />
<path  d="
 M 59 57 C 43 90, -9, 116, 4, 128
 C 18 132, 38, 132, 52, 141
 C 71 125, 76, 69, 62, 52" fill="rgb(122,122,122)" />
<path  d="
 M 514 27 C 466 83, 421, 147, 378, 207
 C 408 241, 469, 267, 487, 296
 C 505 302, 494, 216, 498, 176
 C 493 205, 505, 255, 492, 276
 C 447 264, 417, 229, 386, 207
 C 428 145, 497, 41, 528, 29" fill="rgb(201,201,201)" />
<path  d="
 M 486 14 C 473 49, 402, 135, 361, 191
 C 312 160, 253, 106, 264, 105
 C 244 108, 247, 104, 240, 115
 C 262 122, 320, 171, 359, 196
 C 403 136, 462, 76, 491, 13" fill="rgb(129,129,129)" />
<path  d="
 M 505 11 C 409 146, 257, 360, 202, 405
 C 288 323, 413, 136, 507, 11" fill="rgb(153,153,153)" />
<path  d="
 M 494 2 C 479 56, 404, 137, 364, 196
 C 317 173, 253, 112, 242, 116
 C 244 126, 321, 176, 356, 205
 C 404 142, 485, 46, 499, 6" fill="rgb(138,138,138)" />
<path  d="
 M 517 17 C 468 76, 422, 141, 375, 204
 C 404 243, 459, 269, 481, 300
 C 471 271, 406, 241, 378, 207
 C 419 146, 498, 35, 531, 17" fill="rgb(191,191,191)" />
<path  d="
 M 510 10 C 413 136, 308, 299, 221, 407
 C 283 325, 419, 135, 509, 11" fill="rgb(160,160,160)" />
<path  d="
 M 525 4 C 479 55, 421, 140, 372, 204
 C 391 251, 448, 260, 465, 298
 C 488 288, 397, 241, 373, 210
 C 423 144, 488, 36, 532, 9" fill="rgb(181,181,181)" />
<path  d="
 M 112 42 C 94 54, 82, 110, 80, 144
 C 105 153, 137, 168, 152, 171
 C 164 166, 157, 148, 156, 150
 C 138 148, 132, 157, 80, 145
 C 88 101, 104, 47, 114, 52" fill="rgb(201,201,201)" />
<path  d="
 M 514 1 C 426 129, 315, 284, 238, 401
 C 303 319, 416, 135, 515, 3" fill="rgb(166,166,166)" />
<path  d="
 M 594 474 C 522 513, 388, 530, 358, 541
 C 389 540, 523, 505, 596, 478" fill="rgb(153,153,153)" />
<path  d="
 M 78 36 C 38 40, 68, 76, 38, 71
 C 46 85, 54, 57, 65, 54
 C 72 88, 72, 121, 51, 139
 C 38 134, 14, 130, -1, 133
 C 20 136, 36, 146, 54, 150
 C 74 114, 77, 27, 81, 39" fill="rgb(128,128,128)" />
<path  d="
 M 475 434 C 440 429, 470, 457, 480, 510
 C 517 506, 544, 483, 581, 485
 C 596 469, 522, 501, 494, 502
 C 469 481, 476, 429, 474, 434
 C 474 432, 472, 430, 472, 429" fill="rgb(138,138,138)" />
<path  d="
 M 89 28 C 74 134, 44, 232, 38, 282
 C 66 229, 68, 113, 92, 30" fill="rgb(153,153,153)" />
<path  d="
 M 88 46 C 56 33, 90, 113, 53, 147
 C 37 150, 7, 128, -1, 143
 C 14 153, 28, 153, 57, 157
 C 80 118, 67, 72, 89, 41" fill="rgb(138,138,138)" />
<path  d="
 M 91 23 C 78 108, 52, 257, 44, 284
 C 68 291, 65, 105, 95, 24" fill="rgb(160,160,160)" />
<path  d="
 M 576 496 C 551 501, 531, 518, 501, 513
 C 484 540, 526, 578, 503, 597
 C 519 592, 527, 600, 525, 589
 C 517 602, 495, 522, 507, 521
 C 532 518, 626, 484, 582, 499" fill="rgb(201,201,201)" />
<path  d="
 M 105 21 C 91 48, 79, 105, 75, 144
 C 92 187, 166, 167, 148, 183
 C 168 171, 95, 171, 78, 149
 C 75 98, 103, 28, 115, 29" fill="rgb(181,181,181)" />
<path  d="
 M 480 437 C 467 440, 478, 484, 487, 500
 C 520 488, 578, 491, 583, 466
 C 578 469, 543, 490, 496, 499
 C 485 486, 476, 457, 481, 438" fill="rgb(129,129,129)" />
<path  d="
 M 108 33 C 91 54, 79, 109, 78, 148
 C 103 161, 139, 176, 157, 173
 C 163 175, 105, 158, 82, 149
 C 80 107, 96, 48, 113, 39" fill="rgb(191,191,191)" />
<path  d="
 M 603 476 C 543 503, 433, 530, 389, 557
 C 412 543, 556, 496, 609, 474" fill="rgb(166,166,166)" />
<path  d="
 M 600 473 C 538 506, 436, 526, 378, 550
 C 407 541, 539, 500, 602, 477" fill="rgb(160,160,160)" />
<path  d="
 M 609 489 C 571 489, 536, 506, 499, 512
 L 497 513 L 496 514
 L 495 513 C 470 547, 504, 573, 499, 591
 C 518 566, 471, 542, 498, 513
 C 531 496, 621, 495, 612, 486" fill="rgb(181,181,181)" />
<path  d="
 M 590 495 C 556 489, 535, 516, 501, 511
 L 500 514 L 499 514
 L 498 514 C 475 543, 514, 562, 502, 590
 C 527 578, 480, 538, 500, 516
 C 525 505, 630, 489, 599, 497" fill="rgb(191,191,191)" />
<path  d="
 M 95 16 C 80 88, 68, 180, 61, 252
 C 80 181, 69, 101, 97, 20" fill="rgb(166,166,166)" />
<path  d="
 M 362 71 C 347 65, 349, 85, 343, 85
 C 362 90, 370, 70, 363, 71" fill="rgb(126,126,126)" />
<path  d="
 M 509 437 C 513 471, 522, 433, 524, 448
 C 529 444, 521, 439, 512, 439" fill="rgb(127,127,127)" />
<path  d="
 M 65 256 C 62 272, 46, 271, 48, 281
 C 63 282, 67, 264, 66, 258" fill="rgb(164,164,164)" />
<path  d="
 M 456 425 C 463 433, 473, 450, 465, 423" fill="rgb(130,130,130)" />
<path  d="
 M 470 421 C 462 445, 498, 430, 471, 422" fill="rgb(130,130,130)" />
<path  d="
 M 304 84 C 297 104, 310, 97, 310, 85" fill="rgb(122,122,122)" />
<path  d="
 M 84 27 C 65 29, 78, 50, 85, 29" fill="rgb(122,122,122)" />
<path  d="
 M 69 36 C 76 54, 61, 31, 56, 55
 C 55 45, 61, 40, 68, 40" fill="rgb(125,125,125)" />
<path  d="
 M 559 454 C 555 458, 589, 470, 560, 451" fill="rgb(124,124,124)" />
<path  d="
 M 458 575 C 475 582, 475, 592, 457, 578" fill="rgb(171,171,171)" />
<path  d="
 M 473 9 C 464 31, 482, 7, 480, 12" fill="rgb(122,122,122)" />
<path  d="
 M 512 117 C 505 122, 494, 141, 516, 115" fill="rgb(240,240,240)" />
<path  d="
 M 357 71 C 364 69, 334, 95, 355, 70" fill="rgb(126,126,126)" />
<path  d="
 M 506 110 C 517 113, 490, 128, 506, 112" fill="rgb(207,207,207)" />
<path  d="
 M 427 39 C 412 54, 453, 34, 430, 40" fill="rgb(126,126,126)" /></svg>