<svg  width="50" height="600" xmlns="http://www.w3.org/2000/svg" ><path  d="
 M 4 184 C 7 193, 7, 504, 3, 594
 C 17 606, 25, 583, 30, 593
 C 45 493, 38, 331, 41, 205
 C 48 177, 9, 197, 7, 189" fill="rgb(107,107,107)" />
<path  d="
 M 14 178 C -15 261, 7, 475, 0, 589
 L 6 583 L 8 581 L 7 584
 L 7 582 C 19 461, -5, 260, 23, 175" fill="rgb(107,107,107)" />
<path  d="
 M 43 118 C 46 138, -2, 135, 3, 117
 C 0 139, 0, 159, 0, 178
 C 16 180, 33, 178, 47, 181
 C 47 159, 50, 134, 47, 116" fill="rgb(0,0,0)" />
<path  d="
 M 10 200 C 11 326, 10, 454, 11, 580
 C 5 460, 6, 333, 5, 208" fill="rgb(107,107,107)" />
<path  d="
 M 43 206 C 44 331, 43, 458, 44, 583
 C 48 453, 49, 327, 48, 203" fill="rgb(108,108,108)" />
<path  d="
 M 44 32 C 41 45, 10, 72, 1, 39
 C 0 55, 0, 67, 0, 79
 C 11 50, 42, 81, 46, 93
 C 47 71, 50, 47, 47, 29" fill="rgb(0,0,0)" />
<path  d="
 M 9 2 C 6 22, -10, 24, 22, 39
 C 28 32, 43, 21, 35, 15
 C 21 -2, 21, 4, 9, 4" fill="rgb(107,107,107)" />
<path  d="
 M 7 196 C 6 320, 7, 453, 6, 579
 C 5 455, 5, 331, 5, 207" fill="rgb(107,107,107)" />
<path  d="
 M 18 203 C 19 328, 18, 454, 19, 579
 C 16 456, 17, 332, 17, 208" fill="rgb(106,106,106)" />
<path  d="
 M 19 86 C -1 89, 23, 98, 1, 101
 C -6 112, 16, 99, 18, 121
 C 35 118, 47, 102, 18, 83" fill="rgb(107,107,107)" />
<path  d="
 M 14 592 C 36 605, 12, 580, 40, 599
 C 36 587, 23, 589, 16, 590" fill="rgb(108,108,108)" />
<path  d="
 M 9 105 C -2 107, 14, 122, 26, 121
 C 15 117, 22, 121, 9, 104" fill="rgb(106,106,106)" />
<path  d="
 M 16 195 C 33 189, 33, 202, 16, 196" fill="rgb(107,107,107)" />
<path  d="
 M 19 7 C 36 14, 20, 12, 18, 11" fill="rgb(107,107,107)" /></svg>